HIERARCHY
ROOT Hips
{
	OFFSET 0.00000 0.00000 0.00000
	CHANNELS 6 Xposition Yposition Zposition Zrotation Yrotation Xrotation 
	JOINT LHipJoint
	{
		OFFSET 0 0 0
		CHANNELS 3 Zrotation Yrotation Xrotation
		JOINT LeftUpLeg
		{
			OFFSET 1.48211 -1.84579 0.74791
			CHANNELS 3 Zrotation Yrotation Xrotation
			JOINT LeftLeg
			{
				OFFSET 2.56990 -7.06075 0.00000
				CHANNELS 3 Zrotation Yrotation Xrotation
				JOINT LeftFoot
				{
					OFFSET 2.57933 -7.08667 0.00000
					CHANNELS 3 Zrotation Yrotation Xrotation
					JOINT LeftToeBase
					{
						OFFSET 0.22969 -0.63106 2.10885
						CHANNELS 3 Zrotation Yrotation Xrotation
						End Site
						{
							OFFSET 0.00000 -0.00000 1.10362
						}
					}
				}
			}
		}
	}
	JOINT RHipJoint
	{
		OFFSET 0 0 0
		CHANNELS 3 Zrotation Yrotation Xrotation
		JOINT RightUpLeg
		{
			OFFSET -1.46257 -1.84580 0.74791
			CHANNELS 3 Zrotation Yrotation Xrotation
			JOINT RightLeg
			{
				OFFSET -2.63352 -7.23555 0.00000
				CHANNELS 3 Zrotation Yrotation Xrotation
				JOINT RightFoot
				{
					OFFSET -2.53360 -6.96100 0.00000
					CHANNELS 3 Zrotation Yrotation Xrotation
					JOINT RightToeBase
					{
						OFFSET -0.19079 -0.52420 2.00624
						CHANNELS 3 Zrotation Yrotation Xrotation
						End Site
						{
							OFFSET -0.00000 -0.00000 1.04369
						}
					}
				}
			}
		}
	}
	JOINT LowerBack
	{
		OFFSET 0 0 0
		CHANNELS 3 Zrotation Yrotation Xrotation
		JOINT Spine
		{
			OFFSET -0.02583 2.09021 -0.27313
			CHANNELS 3 Zrotation Yrotation Xrotation
			JOINT Spine1
			{
				OFFSET 0.02621 2.11682 -0.03538
				CHANNELS 3 Zrotation Yrotation Xrotation
				JOINT Neck
				{
					OFFSET 0 0 0
					CHANNELS 3 Zrotation Yrotation Xrotation
					JOINT Neck1
					{
						OFFSET 0.02848 1.69944 0.27193
						CHANNELS 3 Zrotation Yrotation Xrotation
						JOINT Head
						{
							OFFSET -0.09826 1.73070 -0.26626
							CHANNELS 3 Zrotation Yrotation Xrotation
							End Site
							{
								OFFSET -0.03061 1.75878 -0.12207
							}
						}
					}
				}
				JOINT LeftShoulder
				{
					OFFSET 0 0 0
					CHANNELS 3 Zrotation Yrotation Xrotation
					JOINT LeftArm
					{
						OFFSET 3.42696 0.97228 -0.33778
						CHANNELS 3 Zrotation Yrotation Xrotation
						JOINT LeftForeArm
						{
							OFFSET 5.25525 -0.00000 0.00000
							CHANNELS 3 Zrotation Yrotation Xrotation
							JOINT LeftHand
							{
								OFFSET 3.35106 -0.00000 0.00000
								CHANNELS 3 Zrotation Yrotation Xrotation
								JOINT LeftFingerBase
								{
									OFFSET 0 0 0
									CHANNELS 3 Zrotation Yrotation Xrotation
									JOINT LeftHandIndex1
									{
										OFFSET 0.57415 -0.00000 0.00000
										CHANNELS 3 Zrotation Yrotation Xrotation
										End Site
										{
											OFFSET 0.46290 -0.00000 0.00000
										}
									}
								}
								JOINT LThumb
								{
									OFFSET 0 0 0
									CHANNELS 3 Zrotation Yrotation Xrotation
									End Site
									{
										OFFSET 0.46996 -0.00000 0.46996
									}
								}
							}
						}
					}
				}
				JOINT RightShoulder
				{
					OFFSET 0 0 0
					CHANNELS 3 Zrotation Yrotation Xrotation
					JOINT RightArm
					{
						OFFSET -3.28720 1.02454 -0.32654
						CHANNELS 3 Zrotation Yrotation Xrotation
						JOINT RightForeArm
						{
							OFFSET -5.33104 -0.00000 0.00000
							CHANNELS 3 Zrotation Yrotation Xrotation
							JOINT RightHand
							{
								OFFSET -3.39883 -0.00000 0.00000
								CHANNELS 3 Zrotation Yrotation Xrotation
								JOINT RightFingerBase
								{
									OFFSET 0 0 0
									CHANNELS 3 Zrotation Yrotation Xrotation
									JOINT RightHandIndex1
									{
										OFFSET -0.91389 -0.00000 0.00000
										CHANNELS 3 Zrotation Yrotation Xrotation
										End Site
										{
											OFFSET -0.73680 -0.00000 0.00000
										}
									}
								}
								JOINT RThumb
								{
									OFFSET 0 0 0
									CHANNELS 3 Zrotation Yrotation Xrotation
									End Site
									{
										OFFSET -0.74805 -0.00000 0.74805
									}
								}
							}
						}
					}
				}
			}
		}
	}
}
MOTION
Frames: 14
Frame Time: 0.0103093
0.00 0.00 0.00 -360.5990 -7.8395 -369.3170 0.0000 0.0000 0.0000 -10.1529 -7.6364 -6.4933 6.7607 15.1271 47.9636 0.1122 -9.1440 -8.2851 3.5262 -11.5017 -33.9912 0.0000 0.0000 0.0000 10.9232 -6.4197 -1.0450 -6.4812 -14.8790 46.8837 -0.8616 -0.7097 -17.8104 -4.8438 13.2057 -40.1434 -0.7056 1.1430 14.4493 0.5033 1.4123 4.8967 0.6894 0.6882 -2.9582 5.8238 10.1342 -15.4112 -9.6855 14.0629 12.0991 -2.4474 6.2253 7.3529 -0.0000 0.0000 0.0000 -20.4995 -22.8673 -25.0869 109.2437 -58.5534 -76.5846 -0.0000 0.0000 -39.4601 22.3538 24.3472 9.6222 -7.1250 0.0000 -0.0000 -7.6692 55.8870 -2.0571 -0.0000 0.0000 0.0000 16.3847 25.5130 -32.8436 -161.3043 29.0388 -115.1177 0.0000 -0.0000 -128.5940 57.1083 9.7284 14.6430 7.1250 -0.0000 -0.0000 42.8501 5.4744 71.9557
0.00 0.00 0.00 -361.0670 -3.0359 -368.3830 0.0000 0.0000 0.0000 -8.6110 -4.8377 -8.2034 5.9447 14.3746 44.7595 0.2255 -13.9895 -12.3113 1.4839 -7.6962 -21.7950 0.0000 0.0000 0.0000 10.8420 -10.1370 -4.1489 -7.4478 -15.6977 50.5482 -2.4668 5.5685 -28.5294 -1.0235 6.4357 -18.0540 -0.8939 0.0058 11.7116 0.6829 -0.0780 4.7792 1.2216 -0.0565 -1.5730 5.2635 9.9289 -14.4588 -8.3955 13.5019 9.8140 -2.1194 6.1409 6.2719 -0.0000 0.0000 0.0000 -59.6879 -26.3728 11.2771 131.0137 -52.5784 -94.6332 -0.0000 0.0000 -44.9519 24.5995 25.3821 11.1031 -7.1250 0.0000 -0.0000 -5.6811 57.4457 -1.7353 -0.0000 0.0000 0.0000 29.6822 31.1604 -2.2589 -161.9178 28.2622 -115.4119 0.0000 -0.0000 -100.4990 64.1916 7.7494 15.5800 7.1250 -0.0000 -0.0000 47.4105 21.9322 91.3293
0.00 0.00 0.00 -361.7800 -0.8289 -368.1960 0.0000 0.0000 0.0000 -7.4581 -5.9407 -8.0004 5.4346 13.8571 42.6681 0.2439 -14.4250 -12.7369 1.0848 -6.6198 -18.5938 0.0000 0.0000 0.0000 13.2489 -9.3050 -4.4478 -7.5674 -15.7916 50.9890 -3.3373 6.0837 -33.3686 -0.0702 -1.7097 4.7039 -1.8160 -0.4452 10.9022 1.1054 -0.7494 5.9391 2.2449 -0.4357 0.1149 4.3484 9.8308 -17.7058 -8.2919 13.3148 8.5382 -1.8642 5.9633 6.3141 0.0000 -0.0000 0.0000 -80.7632 -21.1486 40.6086 128.2432 -53.6799 -92.4165 -0.0000 0.0000 -44.0890 22.4051 26.0573 10.2650 -7.1250 0.0000 -0.0000 -8.3621 57.6583 -2.6036 0.0000 -0.0000 0.0000 49.1161 36.1803 19.7512 -158.8066 32.0534 -113.8477 0.0000 -0.0000 -81.9256 77.5596 2.3512 10.5347 7.1250 -0.0000 -0.0000 121.9067 -38.6556 -72.5991
0.00 0.00 0.00 -360.4110 -4.1579 -366.7970 0.0000 0.0000 0.0000 -8.3326 -8.2971 -6.0971 4.2593 12.4976 37.5159 0.2515 -7.1411 -9.5562 2.2569 -9.3818 -26.9970 0.0000 0.0000 0.0000 15.4103 -2.8725 -4.9822 -6.8502 -15.2045 48.3055 -2.5193 0.9558 -29.8017 -0.0961 -1.9991 5.5031 -5.6228 1.3404 8.8426 3.0502 1.3931 7.6012 6.2732 0.3785 2.7926 0.1972 9.6634 -21.4493 -10.6896 14.3680 7.4185 -1.7350 6.0590 6.5454 -0.0000 0.0000 0.0000 -93.1476 -9.5552 69.4396 112.1488 -58.0627 -79.0566 -0.0000 0.0000 -40.2517 38.6901 53.7984 32.8728 -7.1250 0.0000 -0.0000 -91.5410 -86.6556 94.8925 -0.0000 0.0000 0.0000 84.2097 37.0296 44.6375 -147.9146 42.6152 -107.2014 0.0000 -0.0000 -58.4961 -97.5414 11.8236 57.1330 7.1250 -0.0000 -0.0000 47.6757 -28.0274 32.1789
0.00 0.00 0.00 -360.1860 -4.8759 -366.9990 0.0000 0.0000 0.0000 -8.5706 -8.8164 -4.7302 3.7766 11.8570 35.2281 0.1598 -4.6172 -7.3339 2.1380 -9.1478 -26.2588 0.0000 0.0000 0.0000 15.4403 -3.5329 -4.6594 -6.2437 -14.6604 45.9520 -2.2183 -0.2396 -28.2965 -0.0209 -0.9345 2.5685 -4.5345 2.2493 9.8400 2.3541 2.6319 7.7178 4.7928 1.0790 2.2417 1.1075 9.1253 -20.8936 -10.6981 13.3169 6.7893 -2.0429 5.6363 6.2561 0.0000 0.0000 0.0000 -90.5249 -6.2437 67.4165 107.6719 -58.7865 -75.2420 -0.0000 0.0000 -40.8950 35.0111 46.7623 27.0363 -7.1250 0.0000 -0.0000 -17.1460 82.0512 -14.6523 0.0000 0.0000 0.0000 87.4922 34.4135 50.0366 -137.2145 49.6363 -99.4628 0.0000 -0.0000 -50.7139 -99.2041 4.8500 27.5544 7.1250 -0.0000 -0.0000 84.8498 -48.8080 -22.8301
0.00 0.00 0.00 -360.0350 -5.1352 -366.0120 0.0000 0.0000 0.0000 -8.9871 -9.6286 -5.3570 3.5657 11.5588 34.1886 0.0988 -1.0627 -5.6580 2.4234 -9.6973 -28.0021 0.0000 0.0000 0.0000 15.4715 -4.1400 -5.7979 -5.7285 -14.1600 43.8823 -1.8300 -1.2346 -26.0492 -0.0587 1.5638 -4.3016 -2.4846 3.0779 10.0399 1.2111 3.8771 7.3070 2.3161 1.8256 1.7436 2.5649 8.5326 -20.1540 -10.5310 12.0736 6.4132 -2.4006 5.1365 6.0167 0.0000 -0.0000 0.0000 -86.0624 -6.6104 65.9914 98.9982 -59.6918 -67.7846 -0.0000 0.0000 -44.6644 32.1172 39.7471 21.8687 -7.1250 0.0000 -0.0000 -6.1919 74.3801 -4.3000 0.0000 -0.0000 0.0000 89.2498 30.8819 52.2050 -114.9250 57.5172 -81.4058 0.0000 -0.0000 -43.8041 -97.2095 13.8223 62.1000 7.1250 -0.0000 -0.0000 49.8533 -30.2277 30.7639
0.00 0.00 0.00 -356.3010 13.1248 -361.7680 0.0000 0.0000 0.0000 -21.1818 -0.5767 -14.0187 6.7924 15.1545 48.0846 0.8721 -9.0191 -16.8815 0.9484 -6.2022 -17.3722 0.0000 0.0000 0.0000 10.6015 -13.1447 -20.2685 -11.2058 -18.0343 63.4480 -1.3512 -1.7773 -22.6681 -0.0940 1.9778 -5.4442 -5.2635 0.3629 9.3849 2.3774 0.1359 6.5990 5.4349 -0.1373 1.6164 0.3284 10.1835 -22.1078 -12.5147 15.3832 7.3657 -2.1459 6.3907 6.8779 0.0000 -0.0000 0.0000 -91.4081 -5.5901 72.6841 52.8704 -54.0896 -28.4831 -0.0000 0.0000 -38.6179 43.7421 -2.5991 -2.4850 -7.1250 0.0000 -0.0000 12.9637 26.3359 -6.0125 0.0000 -0.0000 0.0000 74.4924 2.3186 54.9691 -48.2335 52.2577 -24.7702 0.0000 -0.0000 -40.5104 94.8353 -5.1575 46.7401 7.1250 -0.0000 -0.0000 142.9020 -14.7545 -123.2002
0.00 0.00 0.00 -355.9880 33.2606 -358.3000 0.0000 0.0000 0.0000 -18.5372 -16.2859 -15.4415 7.6570 15.8611 51.3175 0.4004 0.0491 -11.9728 2.0627 -8.9954 -25.7811 0.0000 0.0000 0.0000 13.3479 -18.1880 -8.9487 -5.6372 -14.0673 43.5076 -1.0106 -6.6750 -22.5216 -1.2801 7.1701 -20.2203 6.5070 0.5901 5.3426 -6.5571 1.1094 2.7906 -10.7386 0.7134 0.1780 10.0378 7.4083 -23.6287 -6.2157 7.7491 8.0278 -2.6392 3.5237 6.8383 0.0000 -0.0000 0.0000 -48.0947 -50.4950 36.6914 57.6841 -55.6605 -32.4213 -0.0000 0.0000 -50.9817 45.1726 27.7501 25.0998 -7.1250 0.0000 -0.0000 20.6421 65.5988 10.4701 0.0000 -0.0000 0.0000 86.0784 54.7590 52.5920 -62.9195 57.0390 -36.7808 0.0000 -0.0000 -42.7745 2.1961 53.4139 1.7637 7.1250 -0.0000 -0.0000 19.9786 20.8495 27.0627
0.00 0.00 0.00 -355.6770 33.6167 -357.5210 0.0000 0.0000 0.0000 -19.9548 -14.3861 -17.9016 8.2085 16.2705 53.3102 0.3207 -0.2371 -10.6153 1.3762 -7.4237 -20.9768 0.0000 0.0000 0.0000 14.0058 -17.9629 -6.6063 -4.6397 -12.9662 39.2419 -0.9006 -5.8059 -20.9374 -0.9979 6.3571 -17.8240 9.2033 0.9931 5.9121 -7.3105 1.8091 2.0238 -13.3208 1.0166 -0.6519 9.7742 6.9140 -25.4441 -5.3819 6.8843 9.1824 -2.4021 3.1527 7.3845 0.0000 -0.0000 0.0000 -38.3363 -60.4525 6.3048 45.3875 -50.9569 -22.5393 -0.0000 0.0000 -59.6261 51.4517 30.2080 32.2700 -7.1250 0.0000 -0.0000 33.9532 70.3560 21.3598 0.0000 -0.0000 0.0000 85.3671 73.1829 43.3738 -62.3855 56.9128 -36.3330 0.0000 -0.0000 -43.8231 -12.6397 26.7430 -5.7623 7.1250 -0.0000 -0.0000 10.3944 -3.0525 9.9945
0.00 0.00 0.00 -355.3760 33.5917 -357.1350 0.0000 0.0000 0.0000 -21.6109 -13.1533 -17.7914 7.7789 15.9542 51.7624 0.1003 -8.6342 -7.8271 1.8389 -8.5221 -24.3115 0.0000 0.0000 0.0000 14.1265 -17.6759 -5.7394 -4.4992 -12.7966 38.6118 -0.7329 -5.8957 -19.3704 -1.0937 6.6458 -18.6702 10.1080 1.4182 6.5166 -7.1810 2.4752 1.2250 -13.8182 1.2415 -1.6091 9.0523 7.0460 -25.3682 -4.5242 7.1953 10.3752 -1.9479 3.3621 7.7366 -0.0000 -0.0000 0.0000 -30.9076 -61.7929 -10.2699 41.9800 -49.2002 -19.9254 -0.0000 0.0000 -58.6847 52.0455 29.9130 32.5922 -7.1250 0.0000 -0.0000 35.0503 70.2003 21.9878 -0.0000 -0.0000 0.0000 77.5132 81.8458 30.0760 -60.7603 56.5091 -34.9744 0.0000 -0.0000 -44.9398 -18.5795 19.2168 -6.3134 7.1250 -0.0000 -0.0000 6.2639 -9.8847 5.1272
0.00 0.00 0.00 -355.5330 33.7357 -356.9490 0.0000 0.0000 0.0000 -22.1500 -13.0830 -17.3864 7.3829 15.6460 50.3080 -0.2992 -13.9757 -5.6964 2.0694 -9.0092 -25.8240 0.0000 0.0000 0.0000 14.4304 -17.8732 -5.9509 -4.5862 -12.9021 39.0031 -0.6405 -5.8493 -18.3688 -1.1448 6.7941 -19.1069 10.3430 1.6308 6.2622 -6.8350 2.7584 0.9324 -13.5674 1.3575 -1.6980 9.0773 6.9912 -25.0006 -4.9007 7.2149 10.3591 -2.0836 3.3392 7.6937 0.0000 -0.0000 0.0000 -27.5823 -60.6308 -15.7552 41.8246 -49.1145 -19.8078 -0.0000 0.0000 -56.9436 51.3118 29.2752 31.4097 -7.1250 0.0000 -0.0000 32.8817 69.2654 19.8622 0.0000 -0.0000 0.0000 54.7442 84.6766 6.4289 -59.7982 56.2559 -34.1732 0.0000 -0.0000 -45.1664 -22.5507 18.5251 -7.5158 7.1250 -0.0000 -0.0000 3.6332 -10.0691 2.9481
0.00 0.00 0.00 -355.3630 33.3702 -357.7230 0.0000 0.0000 0.0000 -24.1189 -11.8716 -14.5747 6.4325 14.8348 46.6937 -1.1599 -20.5549 -1.6186 2.0970 -9.0653 -25.9998 0.0000 0.0000 0.0000 13.8143 -18.0243 -5.4642 -5.1554 -13.5567 41.4899 -0.4980 -5.2991 -16.3233 -1.0118 6.3999 -17.9492 9.8406 2.1244 6.9254 -6.0979 3.4488 0.8177 -12.4851 1.6731 -2.0605 9.1484 7.0546 -24.4358 -5.1470 7.3857 10.6978 -2.1609 3.4076 7.7468 0.0000 -0.0000 0.0000 -22.9799 -56.0149 -20.7022 43.6829 -50.1067 -21.2234 -0.0000 0.0000 -52.8796 48.8009 27.0042 27.4149 -7.1250 0.0000 -0.0000 26.5642 65.8615 13.8050 0.0000 -0.0000 0.0000 -4.1047 82.7558 -52.5069 -59.0732 56.0579 -33.5711 0.0000 -0.0000 -40.7584 -28.9126 17.2080 -9.2800 7.1250 -0.0000 -0.0000 -0.6532 -10.4969 -0.5233
0.00 0.00 0.00 -355.3060 33.6996 -361.6760 0.0000 0.0000 0.0000 -27.4689 -7.7692 -5.5388 5.4764 13.9010 42.8424 -0.0460 -13.8749 -9.1767 0.3590 -3.8490 -10.6522 0.0000 0.0000 0.0000 9.6330 -19.8742 -7.5228 -9.0878 -16.8639 56.3932 -0.0100 -2.0574 -3.6385 -0.7980 5.7017 -15.9214 6.5659 2.6715 9.8034 -3.0376 4.1441 2.0642 -7.3752 2.0469 -2.6312 7.2705 7.2534 -24.1029 -4.6487 8.2204 11.1639 -1.5847 3.7764 7.8097 -0.0000 0.0000 0.0000 -22.8145 -40.2246 -21.8930 56.0289 -55.1554 -31.0587 -0.0000 0.0000 -43.7175 42.8988 23.1209 20.0460 -7.1250 0.0000 -0.0000 16.4864 59.4516 5.9174 -0.0000 0.0000 0.0000 -11.7049 66.2999 -56.6177 -66.5276 57.8123 -39.8216 0.0000 -0.0000 -32.1425 -30.5314 15.8465 -9.1487 7.1250 -0.0000 -0.0000 -1.8764 -11.7483 -1.4558
0.00 0.00 0.00 -352.9960 36.5053 -361.9210 0.0000 0.0000 0.0000 -28.3119 -8.3128 -0.4345 5.1058 13.5020 41.2779 -0.0548 -17.4639 -11.7485 0.4480 -4.2941 -11.9056 0.0000 0.0000 0.0000 4.7566 -20.4736 -12.3000 -13.0034 -18.7834 69.1360 -0.0128 -0.8439 -2.6273 -0.5132 4.5919 -12.7481 0.9103 2.5139 11.7643 -1.3406 3.4249 2.6423 -2.4104 1.7049 -3.6830 6.0880 7.9762 -23.1692 -5.6039 9.7699 10.3403 -1.5296 4.3945 7.4746 -0.0000 0.0000 0.0000 -31.3815 -25.3380 -20.4298 67.2321 -57.9477 -40.4183 -0.0000 0.0000 -35.6929 37.5212 19.7573 14.5519 -7.1250 0.0000 -0.0000 9.8009 54.0775 2.2030 -0.0000 0.0000 0.0000 2.6761 50.7815 -41.3548 -85.9957 59.9393 -56.5329 0.0000 -0.0000 -26.4338 -30.4778 13.4814 -7.8123 7.1250 -0.0000 -0.0000 -2.1067 -14.4420 -1.5158
